<?xml version="1.0" encoding="UTF-8"?>
<svg version="1.1" xmlns="http://www.w3.org/2000/svg" width="636" height="212">
<path d="M0 0 C0.85667267 0.00359528 1.71334534 0.00719055 2.59597778 0.01089478 C3.4934523 0.01074875 4.39092682 0.01060272 5.31559753 0.01045227 C8.29702123 0.01115175 11.27838329 0.01894575 14.25979614 0.02676392 C16.32102932 0.02862797 18.38226293 0.03005193 20.4434967 0.03105164 C25.88017999 0.03487779 31.31683675 0.04470891 36.75350952 0.05575562 C42.29661704 0.06596764 47.83972882 0.07054881 53.38284302 0.07559204 C64.2676222 0.08633109 75.15237469 0.10392867 86.03713989 0.12442017 C86.03713989 11.01442017 86.03713989 21.90442017 86.03713989 33.12442017 C78.44713989 33.12442017 70.85713989 33.12442017 63.03713989 33.12442017 C63.07266968 34.72358276 63.10819946 36.32274536 63.14480591 37.97036743 C63.27541616 43.91719333 63.39849072 49.86415568 63.51931763 55.81118774 C63.57260697 58.38252009 63.62792555 60.95381123 63.68533325 63.52505493 C63.7676095 67.22605507 63.8425289 70.92714319 63.91604614 74.62832642 C63.94308121 75.7733815 63.97011627 76.91843658 63.99797058 78.09819031 C64.09976905 83.5719686 64.04288265 88.73675441 63.03713989 94.12442017 C57.12893987 94.14914544 51.22077 94.16729221 45.31253052 94.17935181 C43.30275956 94.18437948 41.29299225 94.1912025 39.28323364 94.19985962 C36.39390155 94.21199367 33.50461783 94.21766416 30.61526489 94.22207642 C29.7172113 94.2272377 28.81915771 94.23239899 27.89389038 94.23771667 C26.63303619 94.23782997 26.63303619 94.23782997 25.34671021 94.23794556 C24.24084564 94.24127647 24.24084564 94.24127647 23.11264038 94.24467468 C20.97561032 94.12085514 19.09190065 93.70963386 17.03713989 93.12442017 C16.07510611 89.89216773 15.91589455 86.98738823 15.9236145 83.62149048 C15.92369003 82.52065125 15.92376556 81.41981201 15.92384338 80.28561401 C15.92900467 79.10320129 15.93416595 77.92078857 15.93948364 76.70254517 C15.94089859 75.48742249 15.94231354 74.2722998 15.94377136 73.02035522 C15.94937002 69.13835186 15.9619223 65.25640611 15.97463989 61.37442017 C15.97965507 58.74291058 15.98421794 56.11140009 15.98831177 53.47988892 C15.99933901 47.02804633 16.01607581 40.57623737 16.03713989 34.12442017 C13.21302224 33.18304762 11.50795957 33.00716634 8.58792114 33.02676392 C7.74036255 33.02998657 6.89280396 33.03320923 6.01956177 33.03652954 C5.13848755 33.04490845 4.25741333 33.05328735 3.34963989 33.06192017 C2.01062622 33.06868774 2.01062622 33.06868774 0.64456177 33.07559204 C-1.55797997 33.08737034 -3.7603861 33.10381852 -5.96286011 33.12442017 C-6.13011997 28.58564756 -6.29071463 24.04670773 -6.44503784 19.50747681 C-6.4985263 17.96216426 -6.55386079 16.4169145 -6.61105347 14.87173462 C-6.69277444 12.65531965 -6.76793181 10.43876633 -6.84176636 8.22207642 C-6.86880142 7.52727676 -6.89583649 6.83247711 -6.9236908 6.11662292 C-6.97587118 4.45332241 -6.97471118 2.78849677 -6.96286011 1.12442017 C-5.10704045 -0.73139949 -2.46887705 0.0043765 0 0 Z " fill="#50ADD2" transform="translate(54.962860107421875,61.875579833984375)"/>
<path d="M0 0 C7.26 0 14.52 0 22 0 C23.70187731 4.25469327 24.66346642 7.80918131 25.5078125 12.26953125 C25.63815887 12.95053391 25.76850525 13.63153656 25.90280151 14.33317566 C26.31491246 16.49208595 26.72005569 18.65223524 27.125 20.8125 C27.40448748 22.2832907 27.68443066 23.75399487 27.96484375 25.22460938 C28.64850508 28.81542025 29.32592709 32.40737531 30 36 C30.23710693 34.94498291 30.47421387 33.88996582 30.71850586 32.80297852 C31.59632543 28.90158636 32.47894162 25.00129268 33.36303711 21.10131836 C33.74553991 19.41086082 34.1267283 17.72010531 34.5065918 16.02905273 C35.05174801 13.60321421 35.60156957 11.17847455 36.15234375 8.75390625 C36.3221727 7.99348526 36.49200165 7.23306427 36.66697693 6.44960022 C37.88612829 1.11387171 37.88612829 1.11387171 39 0 C40.78071246 -0.08726223 42.5648314 -0.10699041 44.34765625 -0.09765625 C45.42724609 -0.09443359 46.50683594 -0.09121094 47.61914062 -0.08789062 C49.32360352 -0.07532227 49.32360352 -0.07532227 51.0625 -0.0625 C52.77276367 -0.05573242 52.77276367 -0.05573242 54.51757812 -0.04882812 C57.34510351 -0.03699747 60.1725264 -0.0205141 63 0 C64.54167593 4.34578084 65.61870107 8.62556631 66.5078125 13.1484375 C66.70333206 14.13452499 66.70333206 14.13452499 66.90280151 15.14053345 C67.31385336 17.21798831 67.71951213 19.29645276 68.125 21.375 C68.40459056 22.79303926 68.68453507 24.21100877 68.96484375 25.62890625 C69.6473218 29.08514099 70.32497094 32.54230174 71 36 C71.26683594 34.7934375 71.53367187 33.586875 71.80859375 32.34375 C73.20641059 26.05788465 74.62906206 19.77783038 76.0625 13.5 C76.4656543 11.71335937 76.4656543 11.71335937 76.87695312 9.890625 C77.13541016 8.76140625 77.39386719 7.6321875 77.66015625 6.46875 C78.01025757 4.92864258 78.01025757 4.92864258 78.36743164 3.35742188 C79 1 79 1 80 0 C81.56172745 -0.08685603 83.12729344 -0.10702219 84.69140625 -0.09765625 C85.63564453 -0.09443359 86.57988281 -0.09121094 87.55273438 -0.08789062 C88.54595703 -0.07951172 89.53917969 -0.07113281 90.5625 -0.0625 C91.55958984 -0.05798828 92.55667969 -0.05347656 93.58398438 -0.04882812 C96.05604849 -0.03700007 98.52799518 -0.02051849 101 0 C100.35853377 7.09164597 98.58627899 13.68209371 96.65625 20.5234375 C96.32709595 21.705961 95.99794189 22.8884845 95.65881348 24.10684204 C94.96547491 26.59361992 94.26941862 29.07964149 93.57080078 31.56494141 C92.49818058 35.38147374 91.43393552 39.2002655 90.37109375 43.01953125 C89.69579745 45.43763548 89.02003269 47.85560895 88.34375 50.2734375 C87.86403748 51.99208511 87.86403748 51.99208511 87.37463379 53.74545288 C87.07762573 54.80060089 86.78061768 55.8557489 86.47460938 56.94287109 C86.2133728 57.87360443 85.95213623 58.80433777 85.6829834 59.76327515 C85 62 85 62 84 64 C76.08 64 68.16 64 60 64 C58.87696142 59.41063506 57.75527566 54.82098166 56.63696289 50.23046875 C56.25656087 48.6707073 55.87538654 47.11113398 55.4934082 45.55175781 C54.94276339 43.30323168 54.39494996 41.05403133 53.84765625 38.8046875 C53.6778273 38.1138205 53.50799835 37.42295349 53.33302307 36.71115112 C52.39078635 32.82525818 51.60496895 28.95246379 51 25 C49.49550618 29.30647493 48.32726727 33.59744305 47.30859375 38.04296875 C47.158423 38.69324539 47.00825226 39.34352203 46.85353088 40.01350403 C46.37877503 42.0708824 45.90787076 44.12911506 45.4375 46.1875 C44.96304461 48.25647213 44.48773861 50.32523964 44.01075745 52.39363098 C43.58008267 54.26223309 43.15215172 56.13146697 42.72436523 58.00073242 C42 61 42 61 41 64 C33.08 64 25.16 64 17 64 C14.78077377 55.95148586 12.56369653 47.90238933 10.35042572 39.85223579 C9.32269627 36.11449559 8.29401693 32.3770222 7.26318359 28.64013672 C6.26892781 25.03571382 5.27714524 21.43061891 4.28709412 17.82503891 C3.90840677 16.44764717 3.52881979 15.07050245 3.14833069 13.69360733 C2.61670831 11.76920794 2.08854272 9.84385459 1.56054688 7.91845703 C1.2585437 6.82147491 0.95654053 5.7244928 0.64538574 4.5942688 C0 2 0 2 0 0 Z " fill="#333333" transform="translate(149,89)"/>
<path d="M0 0 C0.33 0.33 0.66 0.66 1 1 C4.66344611 1.13568319 7.50615721 1.16461426 11 0 C11.33 0.66 11.66 1.32 12 2 C11.34 2 10.68 2 10 2 C10.495 16.355 10.495 16.355 11 31 C13.97 28.525 13.97 28.525 17 26 C24.5496235 23.23180472 31.99973556 23.37766719 39.375 26.75 C45.15757329 30.01942272 47.38780111 34.28262089 49.37149048 40.41769409 C50.46576701 44.91365901 50.36724217 49.33768577 50.29296875 53.94140625 C50.28872391 54.94968979 50.28447906 55.95797333 50.28010559 56.99681091 C50.26344683 60.18565716 50.22581877 63.373848 50.1875 66.5625 C50.17243661 68.73762102 50.15875112 70.91275204 50.14648438 73.08789062 C50.11614991 78.3923766 50.0574038 83.69546335 50 89 C42.41 89 34.82 89 27 89 C26.95101562 86.17050781 26.90203125 83.34101563 26.8515625 80.42578125 C26.79751852 77.67873955 26.74022444 74.93178347 26.68261719 72.18481445 C26.64438661 70.27895514 26.60952345 68.37302513 26.578125 66.46704102 C26.53234578 63.72386447 26.4743727 60.98117212 26.4140625 58.23828125 C26.40251129 57.38913651 26.39096008 56.53999176 26.37905884 55.66511536 C26.23249646 49.59334226 26.23249646 49.59334226 24 44 C20.26636235 42.8636755 17.69179576 42.96118301 14 44 C10.93070502 53.80182732 10.46606576 63.08814496 10.3125 73.25 C10.27923931 74.78518372 10.24474197 76.32034116 10.20898438 77.85546875 C10.12282535 81.5703254 10.06192751 85.28434953 10 89 C2.74 89 -4.52 89 -12 89 C-12 66.56 -12 44.12 -12 21 C-12.66 21 -13.32 21 -14 21 C-14 19.68 -14 18.36 -14 17 C-13.34 17 -12.68 17 -12 17 C-12.14148989 15.3954444 -12.28835686 13.79136233 -12.4375 12.1875 C-12.51871094 11.29417969 -12.59992188 10.40085937 -12.68359375 9.48046875 C-12.93489767 6.87256441 -12.93489767 6.87256441 -14 4 C-9.1093846 0.08750768 -6.25178564 -0.52981234 0 0 Z " fill="#323332" transform="translate(424,64)"/>
<path d="M0 0 C4.84967144 4.42892369 6.69289159 10.14656638 8.25 16.375 C8.25 21.655 8.25 26.935 8.25 32.375 C-4.29 32.375 -16.83 32.375 -29.75 32.375 C-27.56203853 39.18666017 -27.56203853 39.18666017 -23.875 41.375 C-15.65549509 44.20209086 -6.42714113 41.64489345 1.25 38.375 C2.24 38.375 3.23 38.375 4.25 38.375 C4.25 43.655 4.25 48.935 4.25 54.375 C-9.03237979 60.61369354 -23.10585578 61.50323382 -37.0390625 56.56640625 C-43.63944047 53.66566377 -47.66555727 48.8344489 -50.75 42.375 C-54.350128 32.02777897 -54.52168374 18.81290458 -50.06640625 8.70703125 C-45.58093458 0.7609583 -40.52249105 -3.13492913 -31.75 -5.625 C-21.13551095 -8.22855392 -8.7812672 -6.68784274 0 0 Z M-27.0625 11.0625 C-29.15738061 13.59363146 -29.15738061 13.59363146 -29.75 18.375 C-24.14 18.375 -18.53 18.375 -12.75 18.375 C-13.5780165 13.38882553 -13.5780165 13.38882553 -16.75 10.375 C-20.49514944 8.50242528 -23.68289572 8.59630229 -27.0625 11.0625 Z " fill="#323332" transform="translate(534.75,94.625)"/>
<path d="M0 0 C0.85667267 0.00359528 1.71334534 0.00719055 2.59597778 0.01089478 C3.4934523 0.01074875 4.39092682 0.01060272 5.31559753 0.01045227 C8.29702123 0.01115175 11.27838329 0.01894575 14.25979614 0.02676392 C16.32102932 0.02862797 18.38226293 0.03005193 20.4434967 0.03105164 C25.88017999 0.03487779 31.31683675 0.04470891 36.75350952 0.05575562 C42.29661704 0.06596764 47.83972882 0.07054881 53.38284302 0.07559204 C64.2676222 0.08633109 75.15237469 0.10392867 86.03713989 0.12442017 C86.03713989 11.01442017 86.03713989 21.90442017 86.03713989 33.12442017 C55.67713989 33.12442017 25.31713989 33.12442017 -5.96286011 33.12442017 C-6.29286011 22.56442017 -6.62286011 12.00442017 -6.96286011 1.12442017 C-5.10704045 -0.73139949 -2.46887705 0.0043765 0 0 Z " fill="#2994C5" transform="translate(54.962860107421875,61.875579833984375)"/>
<path d="M0 0 C1.36705078 0.04253906 1.36705078 0.04253906 2.76171875 0.0859375 C8.35431913 0.39954126 11.9767693 0.69930512 16 5 C14.13236819 10.72210596 12.14710968 16.37661751 10 22 C9.31035156 21.77183594 8.62070312 21.54367188 7.91015625 21.30859375 C1.40852836 19.31975559 -3.30529919 18.79275887 -10 20 C-10.1340625 20.62132813 -10.268125 21.24265625 -10.40625 21.8828125 C-11 24 -11 24 -12.5 25.875 C-14.87342328 29.23734965 -15.27697874 32.22246614 -14.64453125 36.28125 C-13.92876419 39.59638164 -13.07286102 42.78141693 -12 46 C-4.1822825 49.4397957 3.84254251 45.88307216 11.21875 43.09375 C12.1365625 42.7328125 13.054375 42.371875 14 42 C14.107834 44.93847653 14.18721916 47.87301151 14.25 50.8125 C14.30027344 52.06256836 14.30027344 52.06256836 14.3515625 53.33789062 C14.45038989 59.4898955 14.45038989 59.4898955 12.26171875 61.96875 C0.6677469 67.25512058 -10.97880895 67.56191948 -23.046875 63.37890625 C-29.53911715 60.34747572 -33.55900089 55.73240981 -36.5 49.25 C-39.00176006 41.50437607 -38.2801779 33.15099563 -37.94995117 25.11547852 C-37.90776661 22.97522642 -37.90776661 22.97522642 -38.62231445 20.91381836 C-39 19 -39 19 -37 16 C-36.01 16 -35.02 16 -34 16 C-33.7525 14.9790625 -33.7525 14.9790625 -33.5 13.9375 C-31.26774447 9.56599958 -27.80948775 7.00592393 -24 4 C-23.236875 3.38125 -22.47375 2.7625 -21.6875 2.125 C-15.11422875 -0.62660192 -7.05903093 -0.28812371 0 0 Z " fill="#323232" transform="translate(386,88)"/>
<path d="M0 0 C1.39456452 0.00667256 2.78911118 0.01863093 4.18359375 0.03515625 C4.89451172 0.03966797 5.60542969 0.04417969 6.33789062 0.04882812 C8.09899388 0.06064761 9.86005411 0.07858362 11.62109375 0.09765625 C11.62109375 4.05765625 11.62109375 8.01765625 11.62109375 12.09765625 C16.57109375 12.09765625 21.52109375 12.09765625 26.62109375 12.09765625 C26.62109375 17.70765625 26.62109375 23.31765625 26.62109375 29.09765625 C21.67109375 29.09765625 16.72109375 29.09765625 11.62109375 29.09765625 C11.73450645 33.55656597 11.86126708 38.01438773 11.99609375 42.47265625 C12.02703125 43.74367187 12.05796875 45.0146875 12.08984375 46.32421875 C12.12851562 47.5359375 12.1671875 48.74765625 12.20703125 49.99609375 C12.2541626 51.67711182 12.2541626 51.67711182 12.30224609 53.39208984 C12.35520578 56.24476037 12.35520578 56.24476037 14.62109375 58.09765625 C17.75655141 58.11901003 17.75655141 58.11901003 21.24609375 57.72265625 C24.40171875 57.41328125 24.40171875 57.41328125 27.62109375 57.09765625 C27.62109375 62.70765625 27.62109375 68.31765625 27.62109375 74.09765625 C17.10105799 77.37662843 6.87845679 79.27793416 -3.37890625 74.09765625 C-9.01265698 69.54270885 -10.40174461 65.06194593 -11.37890625 58.09765625 C-11.45730478 55.78886174 -11.48678419 53.47807133 -11.4765625 51.16796875 C-11.47333984 49.87890625 -11.47011719 48.58984375 -11.46679688 47.26171875 C-11.45844358 45.91536389 -11.44997866 44.56900973 -11.44140625 43.22265625 C-11.43638455 41.85286621 -11.43182282 40.4830744 -11.42773438 39.11328125 C-11.41597879 35.77469435 -11.39954589 32.4361981 -11.37890625 29.09765625 C-13.68890625 29.09765625 -15.99890625 29.09765625 -18.37890625 29.09765625 C-18.93488937 25.62447772 -19.15261372 22.54797335 -18.37890625 19.09765625 C-16.30020165 17.30321894 -14.12074589 16.18426597 -11.7109375 14.875 C-7.29554703 11.50983641 -6.14781957 6.17538512 -4.37890625 1.09765625 C-3.37890625 0.09765625 -3.37890625 0.09765625 0 0 Z " fill="#323333" transform="translate(310.37890625,76.90234375)"/>
<path d="M0 0 C-0.66 6.93 -1.32 13.86 -2 21 C-4.97 21 -7.94 21 -11 21 C-16.79468752 22.16221368 -16.79468752 22.16221368 -21 26 C-22.22318866 29.66956597 -22.23116124 33.12321003 -22.31640625 36.94921875 C-22.33718735 37.72183548 -22.35796844 38.49445221 -22.37937927 39.29048157 C-22.44471038 41.7560648 -22.50368315 44.22175361 -22.5625 46.6875 C-22.60570087 48.36003691 -22.64931566 50.03256319 -22.69335938 51.70507812 C-22.8003749 55.8032775 -22.90168857 59.90158296 -23 64 C-26.64581687 64.02887512 -30.29160463 64.04675585 -33.9375 64.0625 C-35.49887695 64.07506836 -35.49887695 64.07506836 -37.09179688 64.08789062 C-38.08115234 64.09111328 -39.07050781 64.09433594 -40.08984375 64.09765625 C-41.46450806 64.10551147 -41.46450806 64.10551147 -42.86694336 64.11352539 C-45 64 -45 64 -46 63 C-46.09920863 61.07238183 -46.12799365 59.14110646 -46.12939453 57.2109375 C-46.13254669 55.9729541 -46.13569885 54.7349707 -46.13894653 53.45947266 C-46.13715675 52.09798141 -46.1351058 50.73649049 -46.1328125 49.375 C-46.13348559 47.98876936 -46.13445566 46.60253883 -46.13571167 45.21630859 C-46.1371884 42.30760578 -46.1350349 39.39893363 -46.13037109 36.49023438 C-46.12467381 32.75403402 -46.12795294 29.01790548 -46.13394356 25.28170776 C-46.13754985 22.41820734 -46.13641027 19.55472407 -46.13381577 16.69122314 C-46.13314668 15.31325268 -46.13397426 13.93528068 -46.13629532 12.55731201 C-46.13882292 10.63456246 -46.13429024 8.71180748 -46.12939453 6.7890625 C-46.12859894 5.69287598 -46.12780334 4.59668945 -46.12698364 3.46728516 C-46 1 -46 1 -45 0 C-42.30345146 -0.07319621 -39.63308542 -0.09242537 -36.9375 -0.0625 C-36.17888672 -0.05798828 -35.42027344 -0.05347656 -34.63867188 -0.04882812 C-32.75908129 -0.0370068 -30.87953101 -0.01907078 -29 0 C-26.96564469 3.72965139 -26 5.66905042 -26 10 C-25.34 10 -24.68 10 -24 10 C-23.690625 9.1646875 -23.690625 9.1646875 -23.375 8.3125 C-20.74906644 3.89615719 -17.32159353 1.54858599 -12.6875 -0.375 C-9 -1 -9 -1 0 0 Z " fill="#323232" transform="translate(597,89)"/>
<path d="M0 0 C7.26 0 14.52 0 22 0 C22 21.12 22 42.24 22 64 C14.74 64 7.48 64 0 64 C0 42.88 0 21.76 0 0 Z " fill="#333333" transform="translate(259,89)"/>
<path d="M0 0 C0 10.89 0 21.78 0 33 C-7.26 32.67 -14.52 32.34 -22 32 C-24.15243902 25.54268293 -24.15243902 25.54268293 -23 22 C-22.9741036 20.50776225 -23.00623887 19.01377043 -23.0859375 17.5234375 C-23.12976563 16.688125 -23.17359375 15.8528125 -23.21875 14.9921875 C-23.2703125 14.12851563 -23.321875 13.26484375 -23.375 12.375 C-23.41882813 11.50359375 -23.46265625 10.6321875 -23.5078125 9.734375 C-23.62823892 5.21494046 -23.62823892 5.21494046 -25 1 C-21.20836402 0.8326303 -17.4166864 0.66622322 -13.625 0.5 C-12.54476562 0.45230469 -11.46453125 0.40460937 -10.3515625 0.35546875 C-9.3203125 0.31035156 -8.2890625 0.26523437 -7.2265625 0.21875 C-6.27346191 0.17685547 -5.32036133 0.13496094 -4.33837891 0.09179688 C-2.89304218 0.03505783 -1.44644999 0 0 0 Z " fill="#3585BC" transform="translate(141,62)"/>
<path d="M0 0 C0.9583374 0.04713135 1.9166748 0.0942627 2.90405273 0.14282227 C4.30119507 0.20747681 4.30119507 0.20747681 5.7265625 0.2734375 C7.51404907 0.36540405 7.51404907 0.36540405 9.33764648 0.45922852 C13.11202148 0.64485352 16.88639648 0.83047852 20.77514648 1.02172852 C20.77514648 10.92172852 20.77514648 20.82172852 20.77514648 31.02172852 C11.52514648 30.95922852 11.52514648 30.95922852 8.62963867 30.93164062 C7.868125 30.92914307 7.10661133 30.92664551 6.32202148 30.92407227 C5.54697266 30.91883545 4.77192383 30.91359863 3.97338867 30.90820312 C1.78231051 31.02135854 -0.12123213 31.41620403 -2.22485352 32.02172852 C-2.39212041 27.62537805 -2.55271444 23.2288509 -2.70703125 18.83203125 C-2.76051786 17.33521913 -2.81585222 15.83847189 -2.87304688 14.34179688 C-2.95477307 12.19488519 -3.02992811 10.04783059 -3.10375977 7.90063477 C-3.15089111 6.60714111 -3.19802246 5.31364746 -3.24658203 3.98095703 C-3.21758208 0.03142377 -3.21758208 0.03142377 0 0 Z " fill="#3386BE" transform="translate(51.224853515625,61.978271484375)"/>
<path d="M0 0 C2.18252521 3.30898983 2.6132183 5.12257633 2.37109375 9.00390625 C1.68944607 12.04368646 0.13517713 13.80446044 -2.0625 15.9375 C-6.25113749 18.03181875 -11.49994499 17.35117165 -16.0625 16.9375 C-19.25 15.5 -19.25 15.5 -21.0625 12.9375 C-22.30929924 8.6809115 -22.49638982 5.21205135 -21.0625 1 C-15.49076693 -4.74584973 -6.25649762 -4.21355962 0 0 Z " fill="#333333" transform="translate(280.0625,67.0625)"/>
<path d="M0 0 C0.66 0 1.32 0 2 0 C2.01030746 0.69491043 2.02061493 1.38982086 2.03123474 2.10578918 C2.12919919 8.65362067 2.23171217 15.20136328 2.33933926 21.74904346 C2.39451122 25.11529613 2.44792197 28.48155757 2.49731445 31.84790039 C2.55496637 35.71769614 2.61867568 39.58735144 2.68359375 43.45703125 C2.70030624 44.66647903 2.71701874 45.87592682 2.73423767 47.12202454 C2.75418289 48.24296005 2.77412811 49.36389557 2.79467773 50.51879883 C2.81799416 52.00105705 2.81799416 52.00105705 2.84178162 53.51325989 C3.05742496 56.90255594 3.57961098 58.57961098 6 61 C4.35 61 2.7 61 1 61 C0.01405016 57.71034661 -0.12110714 54.74042946 -0.11352539 51.31347656 C-0.11344986 50.17259583 -0.11337433 49.03171509 -0.11329651 47.85626221 C-0.10813522 46.63010193 -0.10297394 45.40394165 -0.09765625 44.140625 C-0.0962413 42.88111023 -0.09482635 41.62159546 -0.09336853 40.32391357 C-0.08872073 36.98334881 -0.07974281 33.64285279 -0.06866455 30.30230713 C-0.05841598 26.8903462 -0.05386354 23.47837815 -0.04882812 20.06640625 C-0.03779963 13.3775852 -0.02106189 6.68879657 0 0 Z " fill="#33CEDE" transform="translate(71,94)"/>
<path d="M0 0 C0.9583374 0.04713135 1.9166748 0.0942627 2.90405273 0.14282227 C3.93852539 0.19116211 4.97299805 0.23950195 6.03881836 0.28930664 C7.12743164 0.34538086 8.21604492 0.40145508 9.33764648 0.45922852 C10.43012695 0.51143555 11.52260742 0.56364258 12.64819336 0.61743164 C15.35743724 0.74756999 18.06635442 0.88254906 20.77514648 1.02172852 C20.77514648 1.68172852 20.77514648 2.34172852 20.77514648 3.02172852 C14.17514648 3.35172852 7.57514648 3.68172852 0.77514648 4.02172852 C0.44514648 12.93172852 0.11514648 21.84172852 -0.22485352 31.02172852 C-0.88485352 31.35172852 -1.54485352 31.68172852 -2.22485352 32.02172852 C-2.39212041 27.62537805 -2.55271444 23.2288509 -2.70703125 18.83203125 C-2.76051786 17.33521913 -2.81585222 15.83847189 -2.87304688 14.34179688 C-2.95477307 12.19488519 -3.02992811 10.04783059 -3.10375977 7.90063477 C-3.15089111 6.60714111 -3.19802246 5.31364746 -3.24658203 3.98095703 C-3.21758208 0.03142377 -3.21758208 0.03142377 0 0 Z " fill="#4283AF" transform="translate(51.224853515625,61.978271484375)"/>
<path d="M0 0 C6.93 0 13.86 0 21 0 C20.67 0.66 20.34 1.32 20 2 C17.04213336 2.24798276 14.08538702 2.47411854 11.125 2.6875 C10.28324219 2.76033203 9.44148438 2.83316406 8.57421875 2.90820312 C7.76855469 2.96298828 6.96289062 3.01777344 6.1328125 3.07421875 C5.38918457 3.13182373 4.64555664 3.18942871 3.87939453 3.2487793 C3.25919434 3.16668213 2.63899414 3.08458496 2 3 C1.34 2.01 0.68 1.02 0 0 Z " fill="#4283AD" transform="translate(116,63)"/>
<path d="M0 0 C0.74958984 0.05220703 1.49917969 0.10441406 2.27148438 0.15820312 C4.11887082 0.28763784 5.96574371 0.42436518 7.8125 0.5625 C7.4825 1.2225 7.1525 1.8825 6.8125 2.5625 C0.5425 2.5625 -5.7275 2.5625 -12.1875 2.5625 C-9.91174871 -1.98900257 -4.32262849 -0.32844426 0 0 Z " fill="#2875D1" transform="translate(61.1875,92.4375)"/>
</svg>
