<?xml version="1.0" encoding="UTF-8"?>
<!DOCTYPE svg PUBLIC "-//W3C//DTD SVG 1.1//EN" "http://www.w3.org/Graphics/SVG/1.1/DTD/svg11.dtd">
<svg xmlns="http://www.w3.org/2000/svg" version="1.1" width="195px" height="217px" style="shape-rendering:geometricPrecision; text-rendering:geometricPrecision; image-rendering:optimizeQuality; fill-rule:evenodd; clip-rule:evenodd" xmlns:xlink="http://www.w3.org/1999/xlink">
<g><path style="opacity:0.816" fill="#7eaec9" d="M 139.5,93.5 C 139.5,93.1667 139.5,92.8333 139.5,92.5C 139.5,82.8333 139.5,73.1667 139.5,63.5C 132.5,63.5 125.5,63.5 118.5,63.5C 102.833,63.5 87.1667,63.5 71.5,63.5C 64.8333,63.5 58.1667,63.5 51.5,63.5C 52.531,62.7515 53.6976,62.0848 55,61.5C 83.4261,62.4952 111.926,62.8285 140.5,62.5C 140.828,73.0135 140.494,83.3468 139.5,93.5 Z"/></g>
<g><path style="opacity:0.098" fill="#f2fffe" d="M 48.5,64.5 C 48.5,67.1667 48.5,69.8333 48.5,72.5C 47.545,70.7165 46.8783,68.7165 46.5,66.5C 46.7472,65.2867 47.4138,64.62 48.5,64.5 Z"/></g>
<g><path style="opacity:1" fill="#2e94c4" d="M 49.5,63.5 C 49.5,73.1667 49.5,82.8333 49.5,92.5C 56.8333,92.5 64.1667,92.5 71.5,92.5C 71.5,82.8333 71.5,73.1667 71.5,63.5C 87.1667,63.5 102.833,63.5 118.5,63.5C 117.889,73.14 117.556,82.8067 117.5,92.5C 124.833,92.5 132.167,92.5 139.5,92.5C 139.5,92.8333 139.5,93.1667 139.5,93.5C 132.5,93.5 125.5,93.5 118.5,93.5C 117.833,93.5 117.167,93.5 116.5,93.5C 101.833,93.5 87.1667,93.5 72.5,93.5C 71.8333,93.5 71.1667,93.5 70.5,93.5C 63.1667,93.5 55.8333,93.5 48.5,93.5C 48.5,86.5 48.5,79.5 48.5,72.5C 48.5,69.8333 48.5,67.1667 48.5,64.5C 48.5,63.8333 48.8333,63.5 49.5,63.5 Z"/></g>
<g><path style="opacity:1" fill="#3486bd" d="M 49.5,63.5 C 50.1667,63.5 50.8333,63.5 51.5,63.5C 58.1667,63.5 64.8333,63.5 71.5,63.5C 71.5,73.1667 71.5,82.8333 71.5,92.5C 64.1667,92.5 56.8333,92.5 49.5,92.5C 49.5,82.8333 49.5,73.1667 49.5,63.5 Z"/></g>
<g><path style="opacity:1" fill="#3486bd" d="M 118.5,63.5 C 125.5,63.5 132.5,63.5 139.5,63.5C 139.5,73.1667 139.5,82.8333 139.5,92.5C 132.167,92.5 124.833,92.5 117.5,92.5C 117.556,82.8067 117.889,73.14 118.5,63.5 Z"/></g>
<g><path style="opacity:1" fill="#51add2" d="M 72.5,93.5 C 87.1667,93.5 101.833,93.5 116.5,93.5C 116.5,112.167 116.5,130.833 116.5,149.5C 115.373,150.122 114.373,150.955 113.5,152C 99.8374,152.5 86.1707,152.667 72.5,152.5C 72.5,132.833 72.5,113.167 72.5,93.5 Z"/></g>
<g><path style="opacity:0.908" fill="#6aafca" d="M 70.5,93.5 C 71.1667,93.5 71.8333,93.5 72.5,93.5C 72.5,113.167 72.5,132.833 72.5,152.5C 86.1707,152.667 99.8374,152.5 113.5,152C 114.373,150.955 115.373,150.122 116.5,149.5C 116.5,150.833 116.5,152.167 116.5,153.5C 101.5,153.5 86.5,153.5 71.5,153.5C 71.8207,133.424 71.4874,113.424 70.5,93.5 Z"/></g>
<g><path style="opacity:0.781" fill="#86bed6" d="M 116.5,93.5 C 117.167,93.5 117.833,93.5 118.5,93.5C 117.512,113.758 117.179,134.091 117.5,154.5C 101.991,154.83 86.6576,154.496 71.5,153.5C 86.5,153.5 101.5,153.5 116.5,153.5C 116.5,152.167 116.5,150.833 116.5,149.5C 116.5,130.833 116.5,112.167 116.5,93.5 Z"/></g>
</svg>
